<svg width="20" height="20" viewBox="0 0 20 20" fill="none" xmlns="http://www.w3.org/2000/svg">
<path d="M3.33341 13.3334V3.33341H1.66675V1.66675H4.16675C4.38776 1.66675 4.59972 1.75455 4.756 1.91083C4.91228 2.06711 5.00008 2.27907 5.00008 2.50008V12.5001H15.3651L17.0317 5.83341H6.66675V4.16675H18.1001C18.2268 4.16675 18.3518 4.19563 18.4656 4.2512C18.5794 4.30676 18.6791 4.38754 18.757 4.4874C18.835 4.58727 18.8891 4.70358 18.9153 4.82751C18.9416 4.95143 18.9392 5.07971 18.9084 5.20258L16.8251 13.5359C16.7799 13.7161 16.6759 13.8761 16.5294 13.9904C16.383 14.1047 16.2025 14.1667 16.0167 14.1667H4.16675C3.94573 14.1667 3.73377 14.079 3.57749 13.9227C3.42121 13.7664 3.33341 13.5544 3.33341 13.3334V13.3334ZM5.00008 19.1667C4.55805 19.1667 4.13413 18.9912 3.82157 18.6786C3.50901 18.366 3.33341 17.9421 3.33341 17.5001C3.33341 17.0581 3.50901 16.6341 3.82157 16.3216C4.13413 16.009 4.55805 15.8334 5.00008 15.8334C5.44211 15.8334 5.86603 16.009 6.17859 16.3216C6.49115 16.6341 6.66675 17.0581 6.66675 17.5001C6.66675 17.9421 6.49115 18.366 6.17859 18.6786C5.86603 18.9912 5.44211 19.1667 5.00008 19.1667ZM15.0001 19.1667C14.5581 19.1667 14.1341 18.9912 13.8216 18.6786C13.509 18.366 13.3334 17.9421 13.3334 17.5001C13.3334 17.0581 13.509 16.6341 13.8216 16.3216C14.1341 16.009 14.5581 15.8334 15.0001 15.8334C15.4421 15.8334 15.866 16.009 16.1786 16.3216C16.4912 16.6341 16.6667 17.0581 16.6667 17.5001C16.6667 17.9421 16.4912 18.366 16.1786 18.6786C15.866 18.9912 15.4421 19.1667 15.0001 19.1667Z" fill="white"/>
</svg>
