<svg width="18" height="19" viewBox="0 0 18 19" fill="none" xmlns="http://www.w3.org/2000/svg">
<path d="M8.99995 3.19995C9.43488 3.19995 9.78745 3.55253 9.78745 3.98745V8.71245H14.5125C14.9474 8.71245 15.3 9.06503 15.3 9.49995C15.3 9.93488 14.9474 10.2875 14.5125 10.2875H9.78745V15.0125C9.78745 15.4474 9.43488 15.8 8.99995 15.8C8.56503 15.8 8.21245 15.4474 8.21245 15.0125V10.2875H3.48745C3.05253 10.2875 2.69995 9.93488 2.69995 9.49995C2.69995 9.06503 3.05253 8.71245 3.48745 8.71245H8.21245V3.98745C8.21245 3.55253 8.56503 3.19995 8.99995 3.19995Z" fill="white"/>
</svg>
